<?xml version="1.0" encoding="utf-8"?>
<svg viewBox="0 0 500 500" xmlns="http://www.w3.org/2000/svg">
  <path d="M 371.057 110.657 C 370.153 107.642 367.946 105.341 365.158 104.54 C 355.576 101.758 347.548 94.637 343.132 84.97 C 342.379 83.339 341.567 81.764 340.665 80.228 C 336.832 73.71 331.145 68.797 324.48 66.177 C 318.287 63.744 313.982 60.06 309.982 56.456 C 309.552 47.82 307.806 23.896 301.14 7.528 C 300.618 6.245 299.515 5.316 298.213 5.038 C 296.877 4.755 295.513 5.174 294.534 6.134 C 288.05 12.635 275.76 27.69 270.026 51.59 C 244.71 63.485 237.123 88.849 237.123 106.391 C 237.123 111.838 238.223 116.995 239.805 121.946 C 227.16 128.007 215.067 140.908 203.684 161.575 L 145.197 233.853 L 145.228 233.868 C 123.052 254.694 108.217 291.967 108.217 334.628 C 108.217 343.533 108.985 351.647 110.193 359.261 C 109.935 359.637 109.538 359.86 109.305 360.268 C 90.197 392.736 92.34 389.157 87.851 399.057 C 78.897 423.652 83.891 449.725 97.889 464.675 C 117.001 485.088 137.522 489.066 144.971 488.608 C 160.145 488.872 157.31 488.874 238.058 460.913 C 243.405 459.061 246.456 453.214 244.921 447.58 C 243.361 441.758 237.458 438.356 231.79 439.985 C 150.417 463.415 152.757 464.09 139.528 460.501 C 138.393 460.101 96.297 440.624 124.584 398.011 C 138.148 418.652 158.916 429.09 182.576 429.941 L 182.576 430.224 L 268.219 430.224 C 274.976 430.224 280.478 425.585 280.478 419.865 C 280.478 410.779 275.667 402.167 267.374 396.412 C 263.515 393.72 259.039 391.855 254.333 390.726 C 260.388 379.902 264.572 366.755 266.32 351.232 L 289.614 426.011 C 290.456 428.533 292.772 430.225 295.363 430.225 L 335.255 430.225 C 343.04 430.225 349.355 425.579 349.355 419.872 C 349.355 410.779 343.825 402.182 334.276 396.412 C 328.651 393.003 321.939 390.964 314.902 390.089 L 304.805 351.609 L 299.899 266.216 C 319.21 245.323 331.222 221.848 323.18 177.691 C 319.438 157.256 333.264 147.84 335.839 146.272 C 338.168 145.446 340.496 144.531 342.826 143.808 C 346.444 142.684 350.094 141.085 353.568 138.662 C 355.672 137.187 363.178 131.622 369.493 119.365 C 370.901 116.616 371.93 113.657 371.057 110.657 Z" style="fill: rgb(235, 235, 235);" transform="matrix(0.999875, 0.015784, -0.015784, 0.999875, 3.923848, -3.558062)"/>
  <g transform="matrix(0.999876, 0.015784, -0.015784, 0.999876, -28.190269, -3.585316)"/>
  <g transform="matrix(0.999876, 0.015784, -0.015784, 0.999876, -28.190269, -3.585316)"/>
  <g transform="matrix(0.999876, 0.015784, -0.015784, 0.999876, -28.190269, -3.585316)"/>
  <g transform="matrix(0.999876, 0.015784, -0.015784, 0.999876, -28.190269, -3.585316)"/>
  <g transform="matrix(0.999876, 0.015784, -0.015784, 0.999876, -28.190269, -3.585316)"/>
  <g transform="matrix(0.999876, 0.015784, -0.015784, 0.999876, -28.190269, -3.585316)"/>
  <g transform="matrix(0.999876, 0.015784, -0.015784, 0.999876, -28.190269, -3.585316)"/>
  <g transform="matrix(0.999876, 0.015784, -0.015784, 0.999876, -28.190269, -3.585316)"/>
  <g transform="matrix(0.999876, 0.015784, -0.015784, 0.999876, -28.190269, -3.585316)"/>
  <g transform="matrix(0.999876, 0.015784, -0.015784, 0.999876, -28.190269, -3.585316)"/>
  <g transform="matrix(0.999876, 0.015784, -0.015784, 0.999876, -28.190269, -3.585316)"/>
  <g transform="matrix(0.999876, 0.015784, -0.015784, 0.999876, -28.190269, -3.585316)"/>
  <g transform="matrix(0.999876, 0.015784, -0.015784, 0.999876, -28.190269, -3.585316)"/>
  <g transform="matrix(0.999876, 0.015784, -0.015784, 0.999876, -28.190269, -3.585316)"/>
  <g transform="matrix(0.999876, 0.015784, -0.015784, 0.999876, -28.190269, -3.585316)"/>
</svg>